<?xml version="1.0" encoding="UTF-8" standalone="no"?><!DOCTYPE svg PUBLIC "-//W3C//DTD SVG 1.1//EN" "http://www.w3.org/Graphics/SVG/1.1/DTD/svg11.dtd"><svg width="100%" height="100%" viewBox="0 0 30 30" version="1.1" xmlns="http://www.w3.org/2000/svg" xmlns:xlink="http://www.w3.org/1999/xlink" xml:space="preserve" xmlns:serif="http://www.serif.com/"><g><path d="M15.102,0c5.447,0.051 10.727,3.282 13.234,8.101c2.141,4.116 2.223,9.239 0.204,13.426c-3.247,6.732 -11.949,10.42 -19.295,7.362c-4.793,-1.995 -8.39,-6.628 -9.112,-11.774c-0.895,-6.38 2.809,-13.125 8.693,-15.787c1.965,-0.889 4.123,-1.335 6.276,-1.328Zm-0.18,2.216c-5.891,0.056 -11.378,4.584 -12.489,10.378c-0.798,4.16 0.628,8.684 3.686,11.635c3.546,3.421 9.143,4.549 13.794,2.614c4.108,-1.709 7.189,-5.696 7.78,-10.115c0.724,-5.415 -2.439,-11.126 -7.423,-13.381c-1.673,-0.757 -3.506,-1.136 -5.348,-1.131Zm0.161,18.636c0,0.147 0.027,0.26 0.082,0.34c0.056,0.08 0.126,0.12 0.212,0.12c0.135,0 0.273,-0.04 0.413,-0.12c0.141,-0.08 0.316,-0.217 0.524,-0.413l0.239,0.477c-0.184,0.258 -0.465,0.527 -0.845,0.809c-0.38,0.282 -0.827,0.423 -1.342,0.423c-0.429,0 -0.757,-0.098 -0.984,-0.294c-0.226,-0.196 -0.321,-0.484 -0.285,-0.864c0.062,-0.539 0.221,-1.697 0.478,-3.474c0.344,-2.378 0.552,-3.867 0.625,-4.467l-1.139,-0.441l0.128,-0.644l2.721,-0.423l0.423,0.203l-1.232,8.584l-0.018,0.184Zm0.514,-10.919c-0.281,0 -0.523,-0.104 -0.726,-0.313c-0.202,-0.208 -0.303,-0.459 -0.303,-0.753c0,-0.38 0.132,-0.705 0.395,-0.974c0.264,-0.27 0.573,-0.405 0.929,-0.405c0.33,0 0.588,0.101 0.772,0.303c0.183,0.203 0.275,0.451 0.275,0.745c-0.012,0.392 -0.141,0.723 -0.386,0.993c-0.245,0.269 -0.563,0.404 -0.956,0.404Z"/></g></svg>